<svg width="0" height="0" style="position:absolute">
  <defs>
    <symbol id="crest" viewBox="0 0 120 120">
      <g fill="none" stroke="currentColor" stroke-width="2.4" stroke-linecap="round" stroke-linejoin="round">
        <path d="M30 46 L36 24 L48 38 L60 18 L72 38 L84 24 L90 46 Z"/>
        <path d="M30 46 L90 46 L86 58 L34 58 Z"/>
        <circle cx="36" cy="24" r="3.2" fill="currentColor" stroke="none"/>
        <circle cx="60" cy="18" r="3.2" fill="currentColor" stroke="none"/>
        <circle cx="84" cy="24" r="3.2" fill="currentColor" stroke="none"/>
        <path d="M42 70 Q60 62 78 70" />
        <path d="M60 58 L60 90 M50 90 L70 90"/>
        <path d="M46 78 Q60 86 74 78" />
      </g>
    </symbol>

    <symbol id="ch-a" viewBox="0 0 100 100">
      <g fill="none" stroke="currentColor" stroke-width="2">
        <line x1="50" y1="4" x2="50" y2="20"/>
        <ellipse cx="50" cy="24" rx="4" ry="3"/>
        <path d="M50 27 L50 34"/>
        <ellipse cx="50" cy="42" rx="30" ry="9"/>
        <ellipse cx="50" cy="58" rx="20" ry="6.5"/>
        <ellipse cx="50" cy="70" rx="10" ry="4"/>
        <line x1="20" y1="42" x2="50" y2="70"/>
        <line x1="80" y1="42" x2="50" y2="70"/>
        <line x1="30" y1="58" x2="50" y2="70"/>
        <line x1="70" y1="58" x2="50" y2="70"/>
        <line x1="50" y1="74" x2="50" y2="86"/>
        <path d="M46 86 Q50 92 54 86"/>
      </g>
    </symbol>
    <symbol id="ch-b" viewBox="0 0 100 100">
      <g fill="none" stroke="currentColor" stroke-width="2">
        <line x1="50" y1="6" x2="50" y2="26"/>
        <ellipse cx="50" cy="30" rx="4" ry="3"/>
        <path d="M50 33 C 20 33, 15 55, 30 60"/>
        <path d="M50 33 C 80 33, 85 55, 70 60"/>
        <line x1="50" y1="33" x2="50" y2="60"/>
        <path d="M30 60 L30 66 M50 60 L50 66 M70 60 L70 66"/>
        <path d="M27 66 L33 66 L30 76 Z"/>
        <path d="M47 66 L53 66 L50 76 Z"/>
        <path d="M67 66 L73 66 L70 76 Z"/>
        <path d="M30 60 Q30 50 30 60"/>
        <path d="M28 48 Q30 42 32 48" />
        <path d="M48 44 Q50 38 52 44" />
        <path d="M68 48 Q70 42 72 48" />
      </g>
    </symbol>
    <symbol id="pd-a" viewBox="0 0 100 100">
      <g fill="none" stroke="currentColor" stroke-width="2">
        <line x1="50" y1="6" x2="50" y2="34"/>
        <ellipse cx="50" cy="38" rx="4" ry="3"/>
        <path d="M28 60 C28 42 72 42 72 60 L66 66 L34 66 Z"/>
        <line x1="50" y1="66" x2="50" y2="78"/>
        <circle cx="50" cy="82" r="4"/>
      </g>
    </symbol>
    <symbol id="pd-b" viewBox="0 0 100 100">
      <g fill="none" stroke="currentColor" stroke-width="2">
        <line x1="50" y1="6" x2="50" y2="30"/>
        <ellipse cx="50" cy="34" rx="4" ry="3"/>
        <circle cx="50" cy="58" r="24"/>
        <path d="M30 58 H70 M50 38 V78"/>
      </g>
    </symbol>
    <symbol id="wl-a" viewBox="0 0 100 100">
      <g fill="none" stroke="currentColor" stroke-width="2">
        <rect x="10" y="30" width="8" height="40" rx="1.5"/>
        <path d="M18 50 H45"/>
        <path d="M45 38 L70 44 L70 60 L45 62 Z"/>
        <circle cx="14" cy="40" r="2" fill="currentColor" stroke="none"/>
        <circle cx="14" cy="60" r="2" fill="currentColor" stroke="none"/>
      </g>
    </symbol>
    <symbol id="wl-b" viewBox="0 0 100 100">
      <g fill="none" stroke="currentColor" stroke-width="2">
        <rect x="46" y="14" width="8" height="72" rx="1.5"/>
        <path d="M50 34 C 30 34 24 34 20 40"/>
        <path d="M50 66 C 70 66 76 66 80 60"/>
        <path d="M8 40 L20 36 L20 46 Z"/>
        <path d="M92 60 L80 56 L80 66 Z"/>
      </g>
    </symbol>
    <symbol id="tl-a" viewBox="0 0 100 100">
      <g fill="none" stroke="currentColor" stroke-width="2">
        <path d="M34 30 H66 L60 20 H40 Z"/>
        <ellipse cx="50" cy="17" rx="10" ry="3"/>
        <path d="M40 30 C40 46 34 50 34 58 C34 68 66 68 66 58 C66 50 60 46 60 30"/>
        <rect x="44" y="58" width="12" height="14"/>
        <ellipse cx="50" cy="72" rx="22" ry="4"/>
      </g>
    </symbol>
    <symbol id="tl-b" viewBox="0 0 100 100">
      <g fill="none" stroke="currentColor" stroke-width="2">
        <path d="M32 34 L68 34 L58 16 L42 16 Z"/>
        <ellipse cx="50" cy="14" rx="8" ry="2.6"/>
        <line x1="50" y1="34" x2="50" y2="56"/>
        <ellipse cx="50" cy="58" rx="6" ry="3"/>
        <ellipse cx="50" cy="70" rx="24" ry="4.5"/>
        <path d="M30 70 Q50 78 70 70"/>
      </g>
    </symbol>
    <symbol id="fl-a" viewBox="0 0 100 100">
      <g fill="none" stroke="currentColor" stroke-width="2">
        <path d="M32 22 H68 L60 6 H40 Z"/>
        <line x1="50" y1="22" x2="50" y2="78"/>
        <path d="M50 78 L28 96 M50 78 L72 96 M50 78 L50 98"/>
      </g>
    </symbol>
    <symbol id="fl-b" viewBox="0 0 100 100">
      <g fill="none" stroke="currentColor" stroke-width="2">
        <ellipse cx="50" cy="94" rx="20" ry="4"/>
        <line x1="50" y1="90" x2="50" y2="40"/>
        <path d="M50 40 C 50 14 90 14 90 40"/>
        <path d="M78 40 L102 40 L94 54 Z" transform="translate(-14,0)"/>
      </g>
    </symbol>
    <symbol id="od-a" viewBox="0 0 100 100">
      <g fill="none" stroke="currentColor" stroke-width="2">
        <path d="M50 8 L62 20 H38 Z"/>
        <rect x="36" y="20" width="28" height="40"/>
        <line x1="36" y1="30" x2="64" y2="30"/>
        <line x1="36" y1="50" x2="64" y2="50"/>
        <line x1="50" y1="20" x2="50" y2="60"/>
        <path d="M42 60 H58 V68 H42 Z"/>
        <ellipse cx="50" cy="8" rx="3" ry="2" fill="currentColor" stroke="none"/>
      </g>
    </symbol>
    <symbol id="od-b" viewBox="0 0 100 100">
      <g fill="none" stroke="currentColor" stroke-width="2">
        <path d="M42 20 L58 20 L54 34 H46 Z"/>
        <path d="M40 6 L60 6 L54 20 H46 Z"/>
        <line x1="50" y1="34" x2="50" y2="86"/>
        <path d="M40 86 H60"/>
        <path d="M36 96 H64 L60 86 H40 Z"/>
      </g>
    </symbol>
  </defs>
</svg>